<mxfile host="app.diagrams.net" modified="2024-06-02T06:56:15.936Z" agent="Mozilla/5.0 (Macintosh; Intel Mac OS X 10.15; rv:126.0) Gecko/20100101 Firefox/126.0" version="24.4.13" etag="ntSgpMKa_dodPf7Kk201" type="github">
  <diagram name="PÃ¡gina-1" id="aMBV9uUNQa9EZfxKP61E">
    <mxGraphModel>
      <root>
        <mxCell id="0" />
        <mxCell id="1" parent="0" />
      </root>
    </mxGraphModel>
  </diagram>
</mxfile>
